<svg width="53" height="53" viewBox="0 0 53 53" fill="none" xmlns="http://www.w3.org/2000/svg">
<g opacity="0.5">
<path d="M48.0312 26.5H39.75V19.875C39.75 16.2209 42.7209 13.25 46.375 13.25H47.2031C48.5799 13.25 49.6875 12.1424 49.6875 10.7656V5.79688C49.6875 4.42012 48.5799 3.3125 47.2031 3.3125H46.375C37.2242 3.3125 29.8125 10.7242 29.8125 19.875V44.7188C29.8125 47.4619 32.0381 49.6875 34.7812 49.6875H48.0312C50.7744 49.6875 53 47.4619 53 44.7188V31.4688C53 28.7256 50.7744 26.5 48.0312 26.5ZM18.2188 26.5H9.9375V19.875C9.9375 16.2209 12.9084 13.25 16.5625 13.25H17.3906C18.7674 13.25 19.875 12.1424 19.875 10.7656V5.79688C19.875 4.42012 18.7674 3.3125 17.3906 3.3125H16.5625C7.41172 3.3125 0 10.7242 0 19.875V44.7188C0 47.4619 2.22559 49.6875 4.96875 49.6875H18.2188C20.9619 49.6875 23.1875 47.4619 23.1875 44.7188V31.4688C23.1875 28.7256 20.9619 26.5 18.2188 26.5Z" fill="white"/>
</g>
</svg>
